<mxfile host="Electron" modified="2024-08-25T16:34:25.463Z" agent="Mozilla/5.0 (Windows NT 10.0; Win64; x64) AppleWebKit/537.36 (KHTML, like Gecko) draw.io/22.1.16 Chrome/120.0.6099.109 Electron/28.1.0 Safari/537.36" etag="lqpdkPGUMfTBByUwtDGa" version="22.1.16" type="device">
  <diagram name="Page-1" id="90E5O9sbn273ZypQR_Ip">
    <mxGraphModel dx="1619" dy="766" grid="1" gridSize="10" guides="1" tooltips="1" connect="1" arrows="1" fold="1" page="1" pageScale="1" pageWidth="800" pageHeight="220" math="0" shadow="0">
      <root>
        <mxCell id="0" />
        <mxCell id="1" parent="0" />
        <mxCell id="g08g-qkPBrZcflSKPD4K-45" style="edgeStyle=orthogonalEdgeStyle;rounded=0;orthogonalLoop=1;jettySize=auto;html=1;exitX=1;exitY=0.5;exitDx=0;exitDy=0;exitPerimeter=0;entryX=0;entryY=0.5;entryDx=0;entryDy=0;" edge="1" parent="1" source="g08g-qkPBrZcflSKPD4K-18" target="g08g-qkPBrZcflSKPD4K-19">
          <mxGeometry relative="1" as="geometry" />
        </mxCell>
        <mxCell id="g08g-qkPBrZcflSKPD4K-18" value="" style="points=[[0.145,0.145,0],[0.5,0,0],[0.855,0.145,0],[1,0.5,0],[0.855,0.855,0],[0.5,1,0],[0.145,0.855,0],[0,0.5,0]];shape=mxgraph.bpmn.event;html=1;verticalLabelPosition=bottom;labelBackgroundColor=#ffffff;verticalAlign=top;align=center;perimeter=ellipsePerimeter;outlineConnect=0;aspect=fixed;outline=standard;symbol=general;" vertex="1" parent="1">
          <mxGeometry x="-720" y="-160" width="30" height="30" as="geometry" />
        </mxCell>
        <mxCell id="g08g-qkPBrZcflSKPD4K-21" style="edgeStyle=orthogonalEdgeStyle;rounded=0;orthogonalLoop=1;jettySize=auto;html=1;exitX=1;exitY=0.5;exitDx=0;exitDy=0;entryX=0;entryY=0.5;entryDx=0;entryDy=0;startArrow=classic;startFill=1;" edge="1" parent="1" source="g08g-qkPBrZcflSKPD4K-19" target="g08g-qkPBrZcflSKPD4K-20">
          <mxGeometry relative="1" as="geometry" />
        </mxCell>
        <mxCell id="g08g-qkPBrZcflSKPD4K-22" value="CF" style="edgeLabel;html=1;align=center;verticalAlign=middle;resizable=0;points=[];" vertex="1" connectable="0" parent="g08g-qkPBrZcflSKPD4K-21">
          <mxGeometry x="-0.12" y="-1" relative="1" as="geometry">
            <mxPoint x="2" y="-13" as="offset" />
          </mxGeometry>
        </mxCell>
        <mxCell id="g08g-qkPBrZcflSKPD4K-19" value="" style="ellipse;whiteSpace=wrap;html=1;aspect=fixed;" vertex="1" parent="1">
          <mxGeometry x="-660" y="-172.5" width="55" height="55" as="geometry" />
        </mxCell>
        <mxCell id="g08g-qkPBrZcflSKPD4K-24" style="edgeStyle=orthogonalEdgeStyle;rounded=0;orthogonalLoop=1;jettySize=auto;html=1;exitX=1;exitY=0.5;exitDx=0;exitDy=0;entryX=0;entryY=0.5;entryDx=0;entryDy=0;startArrow=classic;startFill=1;" edge="1" parent="1" source="g08g-qkPBrZcflSKPD4K-20" target="g08g-qkPBrZcflSKPD4K-23">
          <mxGeometry relative="1" as="geometry" />
        </mxCell>
        <mxCell id="g08g-qkPBrZcflSKPD4K-28" value="F" style="edgeLabel;html=1;align=center;verticalAlign=middle;resizable=0;points=[];" vertex="1" connectable="0" parent="g08g-qkPBrZcflSKPD4K-24">
          <mxGeometry x="-0.0961" relative="1" as="geometry">
            <mxPoint y="-12" as="offset" />
          </mxGeometry>
        </mxCell>
        <mxCell id="g08g-qkPBrZcflSKPD4K-20" value="CF" style="ellipse;whiteSpace=wrap;html=1;aspect=fixed;" vertex="1" parent="1">
          <mxGeometry x="-560" y="-172.5" width="55" height="55" as="geometry" />
        </mxCell>
        <mxCell id="g08g-qkPBrZcflSKPD4K-26" style="rounded=0;orthogonalLoop=1;jettySize=auto;html=1;exitX=1;exitY=0;exitDx=0;exitDy=0;curved=1;startArrow=classic;startFill=1;" edge="1" parent="1" source="g08g-qkPBrZcflSKPD4K-23" target="g08g-qkPBrZcflSKPD4K-25">
          <mxGeometry relative="1" as="geometry">
            <Array as="points">
              <mxPoint x="-400" y="-190" />
            </Array>
          </mxGeometry>
        </mxCell>
        <mxCell id="g08g-qkPBrZcflSKPD4K-27" value="FL" style="edgeLabel;html=1;align=center;verticalAlign=middle;resizable=0;points=[];" vertex="1" connectable="0" parent="g08g-qkPBrZcflSKPD4K-26">
          <mxGeometry x="-0.4693" y="-1" relative="1" as="geometry">
            <mxPoint x="19" y="6" as="offset" />
          </mxGeometry>
        </mxCell>
        <mxCell id="g08g-qkPBrZcflSKPD4K-32" style="rounded=0;orthogonalLoop=1;jettySize=auto;html=1;curved=1;startArrow=classic;startFill=1;" edge="1" parent="1" source="g08g-qkPBrZcflSKPD4K-23" target="g08g-qkPBrZcflSKPD4K-31">
          <mxGeometry relative="1" as="geometry">
            <Array as="points">
              <mxPoint x="-390" y="-110" />
            </Array>
          </mxGeometry>
        </mxCell>
        <mxCell id="g08g-qkPBrZcflSKPD4K-33" value="FS" style="edgeLabel;html=1;align=center;verticalAlign=middle;resizable=0;points=[];" vertex="1" connectable="0" parent="g08g-qkPBrZcflSKPD4K-32">
          <mxGeometry x="0.2822" y="2" relative="1" as="geometry">
            <mxPoint x="-6" y="-18" as="offset" />
          </mxGeometry>
        </mxCell>
        <mxCell id="g08g-qkPBrZcflSKPD4K-23" value="C" style="ellipse;whiteSpace=wrap;html=1;aspect=fixed;" vertex="1" parent="1">
          <mxGeometry x="-470" y="-172.5" width="55" height="55" as="geometry" />
        </mxCell>
        <mxCell id="g08g-qkPBrZcflSKPD4K-36" style="edgeStyle=orthogonalEdgeStyle;rounded=0;orthogonalLoop=1;jettySize=auto;html=1;exitX=1;exitY=0.5;exitDx=0;exitDy=0;startArrow=classic;startFill=1;" edge="1" parent="1" source="g08g-qkPBrZcflSKPD4K-25" target="g08g-qkPBrZcflSKPD4K-34">
          <mxGeometry relative="1" as="geometry" />
        </mxCell>
        <mxCell id="g08g-qkPBrZcflSKPD4K-38" value="FC" style="edgeLabel;html=1;align=center;verticalAlign=middle;resizable=0;points=[];" vertex="1" connectable="0" parent="g08g-qkPBrZcflSKPD4K-36">
          <mxGeometry x="-0.2763" y="2" relative="1" as="geometry">
            <mxPoint x="-1" y="17" as="offset" />
          </mxGeometry>
        </mxCell>
        <mxCell id="g08g-qkPBrZcflSKPD4K-25" value="CFL" style="ellipse;whiteSpace=wrap;html=1;aspect=fixed;" vertex="1" parent="1">
          <mxGeometry x="-360" y="-215" width="55" height="55" as="geometry" />
        </mxCell>
        <mxCell id="g08g-qkPBrZcflSKPD4K-37" style="edgeStyle=orthogonalEdgeStyle;rounded=0;orthogonalLoop=1;jettySize=auto;html=1;exitX=1;exitY=0.5;exitDx=0;exitDy=0;startArrow=classic;startFill=1;" edge="1" parent="1" source="g08g-qkPBrZcflSKPD4K-31" target="g08g-qkPBrZcflSKPD4K-35">
          <mxGeometry relative="1" as="geometry" />
        </mxCell>
        <mxCell id="g08g-qkPBrZcflSKPD4K-39" value="FC" style="edgeLabel;html=1;align=center;verticalAlign=middle;resizable=0;points=[];" vertex="1" connectable="0" parent="g08g-qkPBrZcflSKPD4K-37">
          <mxGeometry x="-0.2974" y="2" relative="1" as="geometry">
            <mxPoint y="14" as="offset" />
          </mxGeometry>
        </mxCell>
        <mxCell id="g08g-qkPBrZcflSKPD4K-31" value="CFS" style="ellipse;whiteSpace=wrap;html=1;aspect=fixed;" vertex="1" parent="1">
          <mxGeometry x="-360" y="-130" width="55" height="55" as="geometry" />
        </mxCell>
        <mxCell id="g08g-qkPBrZcflSKPD4K-41" style="rounded=0;orthogonalLoop=1;jettySize=auto;html=1;curved=1;startArrow=classic;startFill=1;" edge="1" parent="1" source="g08g-qkPBrZcflSKPD4K-34" target="g08g-qkPBrZcflSKPD4K-40">
          <mxGeometry relative="1" as="geometry">
            <Array as="points">
              <mxPoint x="-190" y="-190" />
            </Array>
          </mxGeometry>
        </mxCell>
        <mxCell id="g08g-qkPBrZcflSKPD4K-43" value="FS" style="edgeLabel;html=1;align=center;verticalAlign=middle;resizable=0;points=[];" vertex="1" connectable="0" parent="g08g-qkPBrZcflSKPD4K-41">
          <mxGeometry x="-0.2645" y="-2" relative="1" as="geometry">
            <mxPoint y="18" as="offset" />
          </mxGeometry>
        </mxCell>
        <mxCell id="g08g-qkPBrZcflSKPD4K-34" value="L" style="ellipse;whiteSpace=wrap;html=1;aspect=fixed;" vertex="1" parent="1">
          <mxGeometry x="-270" y="-215" width="55" height="55" as="geometry" />
        </mxCell>
        <mxCell id="g08g-qkPBrZcflSKPD4K-42" style="rounded=0;orthogonalLoop=1;jettySize=auto;html=1;curved=1;startArrow=classic;startFill=1;" edge="1" parent="1" source="g08g-qkPBrZcflSKPD4K-35" target="g08g-qkPBrZcflSKPD4K-40">
          <mxGeometry relative="1" as="geometry">
            <Array as="points">
              <mxPoint x="-190" y="-100" />
            </Array>
          </mxGeometry>
        </mxCell>
        <mxCell id="g08g-qkPBrZcflSKPD4K-44" value="FL" style="edgeLabel;html=1;align=center;verticalAlign=middle;resizable=0;points=[];" vertex="1" connectable="0" parent="g08g-qkPBrZcflSKPD4K-42">
          <mxGeometry x="-0.4488" relative="1" as="geometry">
            <mxPoint x="8" y="-30" as="offset" />
          </mxGeometry>
        </mxCell>
        <mxCell id="g08g-qkPBrZcflSKPD4K-35" value="S" style="ellipse;whiteSpace=wrap;html=1;aspect=fixed;" vertex="1" parent="1">
          <mxGeometry x="-270" y="-130" width="55" height="55" as="geometry" />
        </mxCell>
        <mxCell id="g08g-qkPBrZcflSKPD4K-47" style="edgeStyle=orthogonalEdgeStyle;rounded=0;orthogonalLoop=1;jettySize=auto;html=1;startArrow=classic;startFill=1;" edge="1" parent="1" source="g08g-qkPBrZcflSKPD4K-40" target="g08g-qkPBrZcflSKPD4K-46">
          <mxGeometry relative="1" as="geometry" />
        </mxCell>
        <mxCell id="g08g-qkPBrZcflSKPD4K-48" value="F" style="edgeLabel;html=1;align=center;verticalAlign=middle;resizable=0;points=[];" vertex="1" connectable="0" parent="g08g-qkPBrZcflSKPD4K-47">
          <mxGeometry x="-0.2686" relative="1" as="geometry">
            <mxPoint x="23" y="-2" as="offset" />
          </mxGeometry>
        </mxCell>
        <mxCell id="g08g-qkPBrZcflSKPD4K-40" value="LFS" style="ellipse;whiteSpace=wrap;html=1;aspect=fixed;" vertex="1" parent="1">
          <mxGeometry x="-170" y="-172.5" width="55" height="55" as="geometry" />
        </mxCell>
        <mxCell id="g08g-qkPBrZcflSKPD4K-50" style="rounded=0;orthogonalLoop=1;jettySize=auto;html=1;curved=1;startArrow=classic;startFill=1;" edge="1" parent="1" source="g08g-qkPBrZcflSKPD4K-46" target="g08g-qkPBrZcflSKPD4K-49">
          <mxGeometry relative="1" as="geometry">
            <Array as="points">
              <mxPoint x="-180" y="-10" />
            </Array>
          </mxGeometry>
        </mxCell>
        <mxCell id="g08g-qkPBrZcflSKPD4K-51" value="CF" style="edgeLabel;html=1;align=center;verticalAlign=middle;resizable=0;points=[];" vertex="1" connectable="0" parent="g08g-qkPBrZcflSKPD4K-50">
          <mxGeometry x="-0.4455" relative="1" as="geometry">
            <mxPoint x="-18" y="-12" as="offset" />
          </mxGeometry>
        </mxCell>
        <mxCell id="g08g-qkPBrZcflSKPD4K-46" value="LS" style="ellipse;whiteSpace=wrap;html=1;aspect=fixed;" vertex="1" parent="1">
          <mxGeometry x="-170" y="-85" width="55" height="55" as="geometry" />
        </mxCell>
        <mxCell id="g08g-qkPBrZcflSKPD4K-53" style="edgeStyle=orthogonalEdgeStyle;rounded=0;orthogonalLoop=1;jettySize=auto;html=1;" edge="1" parent="1" source="g08g-qkPBrZcflSKPD4K-49" target="g08g-qkPBrZcflSKPD4K-52">
          <mxGeometry relative="1" as="geometry" />
        </mxCell>
        <mxCell id="g08g-qkPBrZcflSKPD4K-49" value="CFLS" style="ellipse;whiteSpace=wrap;html=1;aspect=fixed;" vertex="1" parent="1">
          <mxGeometry x="-270" y="-60" width="55" height="55" as="geometry" />
        </mxCell>
        <mxCell id="g08g-qkPBrZcflSKPD4K-52" value="" style="points=[[0.145,0.145,0],[0.5,0,0],[0.855,0.145,0],[1,0.5,0],[0.855,0.855,0],[0.5,1,0],[0.145,0.855,0],[0,0.5,0]];shape=mxgraph.bpmn.event;html=1;verticalLabelPosition=bottom;labelBackgroundColor=#ffffff;verticalAlign=top;align=center;perimeter=ellipsePerimeter;outlineConnect=0;aspect=fixed;outline=end;symbol=terminate;" vertex="1" parent="1">
          <mxGeometry x="-347.5" y="-47.5" width="30" height="30" as="geometry" />
        </mxCell>
      </root>
    </mxGraphModel>
  </diagram>
</mxfile>
